<svg width="121" height="136" viewBox="0 0 121 136" fill="none" xmlns="http://www.w3.org/2000/svg">
<g clip-path="url(#clip0_2_1887)">
<path d="M90.5305 82.0133C91.1645 83.2495 90.5486 84.3986 89.8484 85.494C89.3637 86.2523 88.7947 86.9567 88.1718 87.7454C86.7645 89.5756 85.3268 91.2676 83.3532 92.4984C82.1474 93.2705 81.8408 93.1932 81.0756 92.348C80.2496 91.2265 80.2122 90.7279 81.1652 89.7941C82.7714 88.2098 83.8721 86.3023 84.9189 84.4791C86.0735 82.4874 87.8386 81.9541 89.9476 81.9968C90.0319 82.0507 90.17 82.0203 90.17 82.0203C90.4463 81.9595 90.4462 81.9595 90.5305 82.0133Z" fill="#512A00"/>
<path d="M71.3164 52.2846C71.2668 54.0332 70.405 55.3813 69.1758 56.3758C67.977 57.5084 66.7478 58.503 65.3805 59.5279C64.259 60.3539 63.5919 60.2835 62.9717 59.7684C62.2369 59.0613 62.0476 57.8721 62.6097 56.8071C62.7713 56.5544 62.879 56.3859 63.0406 56.1331C63.825 55.0916 64.5791 53.9121 65.3635 52.8706C66.1479 51.8291 67.2529 51.586 68.5263 51.4505C68.9407 51.3594 69.4697 51.4601 69.9144 51.5071C70.7735 51.4628 70.7735 51.4628 71.3164 52.2846Z" fill="#512A00"/>
<path d="M91.6756 69.4528C92.3496 69.8837 92.4712 70.4361 92.3166 71.0494C92.0611 72.1916 91.5833 73.3104 90.8527 74.2676C90.2298 75.0563 89.7451 75.8146 89.1222 76.6033C87.9304 78.0965 86.7081 79.4515 85.432 80.8908C85.3243 81.0593 85.048 81.1201 84.5798 81.2955C84.2663 80.8577 83.8685 80.366 83.5245 79.7901C84.2482 78.4724 85.0022 77.2928 85.5877 76.0055C86.2272 74.6339 86.7823 73.2085 87.2836 71.8674C87.7849 70.5262 89.1522 69.5013 90.5941 69.4736C91.0085 69.3824 91.3151 69.4597 91.6756 69.4528Z" fill="#512A00"/>
<path d="M83.0332 49.9234C82.8343 49.6776 82.6892 49.3475 82.5442 49.0174C82.837 48.3737 82.9916 47.7605 83.2844 47.1168C84.1696 45.5464 85.001 44.0601 85.8862 42.4897C86.3171 41.8156 86.6638 41.0877 86.9261 40.306C87.397 38.8267 88.6401 38.5531 89.7989 38.2257C90.5433 37.9895 91.3789 38.1676 92.238 38.1234C91.0477 42.5847 87.7745 45.4771 85.0068 48.6926C84.2224 49.7341 84 49.7106 83.0332 49.9234Z" fill="#512A00"/>
<path d="M104.023 39.3671C103.073 38.997 102.783 38.3368 102.907 37.5854C103.28 35.3313 103.622 32.9391 103.995 30.685C104.018 30.4626 104.126 30.2941 104.234 30.1256C105.025 29.4446 105.763 28.8479 106.814 28.689C108.003 28.4997 109.075 29.4222 108.819 30.5645C108.672 31.5382 108.386 32.5424 107.932 33.4388C107.077 35.1474 106.138 36.8021 105.114 38.4029C104.899 38.74 104.377 38.9997 104.023 39.3671Z" fill="#512A00"/>
<path d="M54.0186 87.5142C53.705 87.0764 53.4218 86.7767 53.2768 86.4466C53.1317 86.1165 53.0944 85.6179 53.3099 85.2808C54.4713 83.6496 55.6328 82.0183 57.047 80.5487C58 79.6149 59.435 79.2267 60.877 79.199C61.1532 79.1382 61.4902 79.3537 61.7969 79.431C61.9696 81.203 60.9393 82.4434 59.9325 83.4614C58.626 84.7626 57.1206 85.8179 55.6152 86.8732C55.1773 87.1868 54.5406 87.2545 54.0186 87.5142Z" fill="#512A00"/>
<path d="M71.8154 85.4799C70.5985 84.2273 70.5611 83.7287 71.4229 82.3806C71.7999 81.7908 72.2612 81.2549 72.5001 80.6955C72.7929 80.0518 72.9476 79.4386 73.2099 78.6568C74.5772 77.6319 76.2346 77.2671 78.0205 77.8154C78.4557 78.8056 78.1629 79.4493 77.7624 80.2615C77.0388 81.5791 75.9781 82.6814 74.8028 83.5917C74.1191 84.1041 73.4355 84.6166 72.6675 85.0752C72.4217 85.2741 72.1455 85.3349 71.8154 85.4799Z" fill="#512A00"/>
<path d="M12.4256 79.7974C12.3648 79.5212 12.3578 79.1607 12.3509 78.8002C13.587 78.1661 14.7693 77.6163 15.9212 76.9284C16.2513 76.7834 16.5275 76.7226 16.8272 76.4394C18.1945 75.4145 19.8588 75.4103 21.5231 75.406C21.8836 75.3991 22.3049 75.6684 22.6115 75.7457C22.4777 77.4404 20.7941 79.3314 19.2748 79.6657C17.7556 80.0001 16.1216 80.1424 14.572 80.3387C13.7737 80.6592 13.13 80.3664 12.4256 79.7974Z" fill="#512A00"/>
<path d="M55.3297 69.125C54.5868 72.3294 50.5222 75.9028 47.5002 75.9886C47.2709 75.6046 46.9573 75.1668 46.5595 74.6751C47.1285 73.9707 47.7279 73.4044 48.243 72.7842C48.8659 71.9955 49.4349 71.291 49.9735 70.4485C50.9195 69.1543 53.0382 68.2536 54.5175 68.7245C54.8241 68.8018 55.0769 68.9634 55.3297 69.125Z" fill="#512A00"/>
<path d="M15.4552 87.3122C15.3213 89.0069 14.0617 89.8633 12.9706 90.8275C12.9168 90.9117 12.7248 91.0264 12.6405 90.9725C10.9762 90.9768 9.25802 91.0653 7.64755 90.9853C7.06469 90.9687 6.63648 90.3389 5.96244 89.908C6.36986 89.4564 6.44719 89.1497 6.77728 89.0047C8.20538 88.256 9.60308 87.3692 11.1458 86.8125C12.0822 86.4616 13.248 86.4947 14.2452 86.42C14.7438 86.3827 15.2189 86.5678 15.4552 87.3122Z" fill="#512A00"/>
<path d="M36.3556 76.3415C36.868 77.0251 36.6291 77.5845 36.2521 78.1743C35.4746 79.5763 34.4139 80.6785 32.925 81.151C31.5742 81.5931 30.2235 82.0351 28.957 82.531C27.5854 81.8916 27.5854 81.8916 27.6723 80.6417C29.0935 79.5325 30.5685 78.3391 32.0201 77.368C33.3031 76.2892 34.7686 76.0391 36.3556 76.3415Z" fill="#512A00"/>
<path d="M43.5548 91.6266C43.5382 92.2095 43.6059 92.8462 43.4748 93.2371C42.5964 95.168 41.2969 96.8297 38.9185 97.2083C37.8674 97.3672 36.931 97.718 35.8261 97.9612C35.536 97.301 35.4448 96.8867 35.1851 96.3646C36.1381 95.4309 37.0675 94.7195 37.852 93.678C38.5287 92.8051 39.3809 92.4003 40.3712 91.9652C41.3614 91.5301 42.3352 91.6778 43.5548 91.6266Z" fill="#512A00"/>
<path d="M62.0002 92.8533C62.6811 93.6447 62.2503 94.3187 61.9575 94.9624C60.7491 97.0384 59.5199 98.0329 56.9565 98.8866C55.2479 98.0318 55.0959 97.3412 56.0654 95.8246C57.2503 93.971 58.9477 92.801 61.2488 92.729C61.5554 92.8064 61.7778 92.8298 62.0002 92.8533Z" fill="#512A00"/>
<path d="M9.82358 95.9366C8.86101 97.8137 7.43984 98.9229 5.33077 98.8802C4.38742 98.8706 3.47447 98.9991 2.53112 98.9895C1.14303 98.933 0.94412 98.6871 0.640172 97.306C3.56676 95.1415 8.32351 94.3843 9.82358 95.9366Z" fill="#512A00"/>
<path d="M47.7079 98.3154C47.6721 100.785 44.5066 103.509 41.1311 103.962C40.9018 103.578 40.5882 103.14 40.3589 102.756C41.5838 100.098 45.5615 97.7741 47.7079 98.3154Z" fill="#512A00"/>
</g>
<defs>
<clipPath id="clip0_2_1887">
<rect width="116.3" height="69" fill="white" transform="translate(0.125 97.9261) rotate(-57.411)"/>
</clipPath>
</defs>
</svg>
